<svg width="136" height="136" viewBox="0 0 136 136" fill="none" xmlns="http://www.w3.org/2000/svg">
<rect width="136" height="136" rx="36" fill="white"/>
<path fill-rule="evenodd" clip-rule="evenodd" d="M84.1386 45.5547H29V92.002C29 96.4211 32.6101 100 37.0673 100H78.3081H64.4105V96.274C64.4105 94.3745 65.093 92.5319 66.3348 91.0888L80.545 74.5547V74.5629C80.5367 74.5709 80.5285 74.5873 80.5121 74.5954C82.1568 72.7284 84.5745 71.5544 87.2636 71.5544H90.405V51.7753C90.4132 48.343 87.609 45.5547 84.1386 45.5547Z" fill="url(#paint0_radial_10975_186698)"/>
<path fill-rule="evenodd" clip-rule="evenodd" d="M80.5532 74.5631C79.1551 76.1285 78.3082 78.1912 78.3082 80.4414L78.3081 100H64.4105V96.274C64.4105 94.3745 65.093 92.5319 66.3348 91.0888L80.545 74.5547L80.5532 74.5631Z" fill="#B8D7FF"/>
<path d="M86.1616 89.8413H88.9987C89.1138 90.3305 89.4016 90.7627 89.8128 91.0643C90.2158 91.366 90.7174 91.5209 91.2273 91.4964C92.5101 91.4964 93.3572 90.7952 93.3572 89.768C93.3572 88.7407 92.4772 88.17 90.7339 88.17H89.6072V85.8545H90.5858C92.2717 85.8545 92.9624 85.2349 92.9624 84.3137C92.9624 83.3924 92.2141 82.7565 91.178 82.7565C90.7174 82.732 90.2569 82.8787 89.9115 83.1804C89.5579 83.482 89.3441 83.906 89.3029 84.3626H86.5646C86.6632 82.7483 87.9461 80.4329 91.1615 80.4329C93.7436 80.4329 95.5282 81.8923 95.5282 83.9467C95.5282 84.6071 95.3226 85.2513 94.9278 85.7812C94.5331 86.3112 93.9821 86.7106 93.3489 86.9063V86.947C94.0891 87.0775 94.7551 87.4688 95.2239 88.0477C95.6926 88.6266 95.9393 89.3521 95.9147 90.1023C95.9147 92.328 93.8588 93.7956 91.2026 93.7956C88.382 93.8118 86.3672 92.222 86.1616 89.8413Z" fill="#8F69FF"/>
<path d="M100.873 80.6542H102.937V93.6092H100.273V83.6708L97.7074 85.3992V82.7821L100.873 80.6542Z" fill="#8F69FF"/>
<path fill-rule="evenodd" clip-rule="evenodd" d="M37.0673 36H98.9327C103.39 36 107 39.5791 107 43.998V71.555H90.4132V51.7759C90.4132 48.3354 87.6007 45.5547 84.1386 45.5547H29V43.998C29 39.5791 32.6101 36 37.0673 36Z" fill="url(#paint1_linear_10975_186698)"/>
<defs>
<radialGradient id="paint0_radial_10975_186698" cx="0" cy="0" r="1" gradientUnits="userSpaceOnUse" gradientTransform="translate(104.017 -17.3928) scale(159.256 135.211)">
<stop offset="0.5563" stop-color="#6D4AFF"/>
<stop offset="0.9944" stop-color="#06B8FF"/>
</radialGradient>
<linearGradient id="paint1_linear_10975_186698" x1="94.5268" y1="79.7472" x2="46.3068" y2="12.6704" gradientUnits="userSpaceOnUse">
<stop stop-color="#BFE8FF"/>
<stop offset="0.3075" stop-color="#BFABFF"/>
<stop offset="1" stop-color="#7341FF"/>
</linearGradient>
</defs>
</svg>
