<svg width="136" height="136" viewBox="0 0 136 136" fill="none" xmlns="http://www.w3.org/2000/svg">
<rect width="136" height="136" rx="36" fill="white"/>
<path d="M84.1023 52.0367L53.5502 52.2079C52.2347 52.216 50.9521 51.8165 49.8751 51.0583L43.0675 46.2644C42.0069 45.5144 40.7325 45.1149 39.4334 45.1149H29V92.002C29 96.4209 32.6094 100 37.0656 100H90.4167V58.2573C90.4167 54.8087 87.5884 52.0122 84.1023 52.0367Z" fill="url(#paint0_radial_10975_186738)"/>
<path fill-rule="evenodd" clip-rule="evenodd" d="M65.7596 42.4408H98.9344C103.391 42.4408 107 46.0199 107 50.4387V91.9939C107 96.4128 103.391 99.9919 98.9344 99.9919H90.4167V58.2573C90.4167 54.8087 87.5884 52.0122 84.1023 52.0367L53.5502 52.2079C52.2347 52.216 50.9521 51.8165 49.8751 51.0583L43.0675 46.2644C42.0069 45.5144 40.7325 45.1149 39.4334 45.1149H29V43.998C29 39.5791 32.6094 36 37.0656 36H52.2019C53.7311 36 55.2192 36.481 56.4443 37.3778L61.5089 41.0629C62.7422 41.9597 64.2303 42.4408 65.7596 42.4408Z" fill="url(#paint1_linear_10975_186738)"/>
<defs>
<radialGradient id="paint0_radial_10975_186738" cx="0" cy="0" r="1" gradientUnits="userSpaceOnUse" gradientTransform="translate(113.533 -7.96682) scale(145.547 132.515)">
<stop offset="0.5561" stop-color="#6D4AFF"/>
<stop offset="1" stop-color="#FF50C3"/>
</radialGradient>
<linearGradient id="paint1_linear_10975_186738" x1="27.9717" y1="2.59991" x2="124.556" y2="109.655" gradientUnits="userSpaceOnUse">
<stop stop-color="#7341FF"/>
<stop offset="0.3593" stop-color="#B487FF"/>
<stop offset="1" stop-color="#FFC8FF"/>
</linearGradient>
</defs>
</svg>
