<svg width="136" height="136" viewBox="0 0 136 136" fill="none" xmlns="http://www.w3.org/2000/svg">
<rect width="136" height="136" rx="36" fill="white"/>
<g clip-path="url(#clip0_10975_186766)">
<path fill-rule="evenodd" clip-rule="evenodd" d="M59.3559 105.032C62.8904 111.369 71.967 111.713 75.9798 105.661L113.397 49.2338C117.365 43.2499 113.568 35.2271 106.383 34.4118L32.8387 26.0663C24.9978 25.1765 19.415 33.422 23.2288 40.2597L59.3559 105.032Z" fill="url(#paint0_linear_10975_186766)"/>
<path d="M61.4631 99.1217L64.7838 94.1821L90.0075 56.1828C92.2128 52.8605 90.1079 48.4037 86.1177 47.9468L23.519 40.7793L55.9469 98.9199C57.1304 101.001 60.1229 101.115 61.4631 99.1217Z" fill="url(#paint1_linear_10975_186766)"/>
</g>
<defs>
<linearGradient id="paint0_linear_10975_186766" x1="106.099" y1="105.028" x2="46.4987" y2="1.96963" gradientUnits="userSpaceOnUse">
<stop offset="0.0660125" stop-color="#8EFFEE"/>
<stop offset="0.4499" stop-color="#C9C7FF"/>
<stop offset="1" stop-color="#7341FF"/>
</linearGradient>
<linearGradient id="paint1_linear_10975_186766" x1="111.57" y1="-65.8943" x2="28.142" y2="113.033" gradientUnits="userSpaceOnUse">
<stop offset="0.4799" stop-color="#6D4AFF"/>
<stop offset="0.9944" stop-color="#00F0C3"/>
</linearGradient>
<clipPath id="clip0_10975_186766">
<rect width="93" height="84" fill="white" transform="translate(22 26)"/>
</clipPath>
</defs>
</svg>
